<mxfile host="app.diagrams.net" agent="Mozilla/5.0 (Macintosh; Intel Mac OS X 10_15_7) AppleWebKit/537.36 (KHTML, like Gecko) Chrome/135.0.0.0 Safari/537.36" version="26.2.14">
  <diagram name="第 1 页" id="ZnLAtKhmWBTOw0r1sWJq">
    <mxGraphModel dx="1261" dy="813" grid="0" gridSize="10" guides="1" tooltips="1" connect="1" arrows="1" fold="1" page="1" pageScale="1" pageWidth="827" pageHeight="1169" math="0" shadow="0">
      <root>
        <mxCell id="0" />
        <mxCell id="1" parent="0" />
        <mxCell id="qZO-hE6-Ivbw02WwjuRh-2" value="&lt;font style=&quot;font-size: 20px;&quot;&gt;IPFS 八层协议栈&lt;/font&gt;" style="rounded=1;whiteSpace=wrap;html=1;" vertex="1" parent="1">
          <mxGeometry x="210" y="170" width="430" height="60" as="geometry" />
        </mxCell>
        <mxCell id="qZO-hE6-Ivbw02WwjuRh-3" value="&lt;font style=&quot;font-size: 15px;&quot;&gt;身份&lt;/font&gt;" style="rounded=1;whiteSpace=wrap;html=1;" vertex="1" parent="1">
          <mxGeometry x="210" y="250" width="120" height="40" as="geometry" />
        </mxCell>
        <mxCell id="qZO-hE6-Ivbw02WwjuRh-4" value="S/Kademlia生成&lt;div&gt;对等节点身份信息生成&lt;/div&gt;" style="rounded=1;whiteSpace=wrap;html=1;" vertex="1" parent="1">
          <mxGeometry x="354" y="250" width="286" height="40" as="geometry" />
        </mxCell>
        <mxCell id="qZO-hE6-Ivbw02WwjuRh-19" value="&lt;font style=&quot;font-size: 15px;&quot;&gt;网络&lt;/font&gt;" style="rounded=1;whiteSpace=wrap;html=1;" vertex="1" parent="1">
          <mxGeometry x="210" y="300" width="120" height="40" as="geometry" />
        </mxCell>
        <mxCell id="qZO-hE6-Ivbw02WwjuRh-20" value="任意传输层协议&lt;div&gt;ICE NET &amp;amp; NAT 穿透&lt;/div&gt;" style="rounded=1;whiteSpace=wrap;html=1;" vertex="1" parent="1">
          <mxGeometry x="354" y="300" width="286" height="40" as="geometry" />
        </mxCell>
        <mxCell id="qZO-hE6-Ivbw02WwjuRh-21" value="&lt;font style=&quot;font-size: 15px;&quot;&gt;路由&lt;/font&gt;" style="rounded=1;whiteSpace=wrap;html=1;" vertex="1" parent="1">
          <mxGeometry x="210" y="355" width="120" height="40" as="geometry" />
        </mxCell>
        <mxCell id="qZO-hE6-Ivbw02WwjuRh-22" value="分布式松散哈希表（DSHT）&lt;div&gt;定位对等点和存储对象需要的信息&lt;/div&gt;" style="rounded=1;whiteSpace=wrap;html=1;" vertex="1" parent="1">
          <mxGeometry x="354" y="355" width="286" height="40" as="geometry" />
        </mxCell>
        <mxCell id="qZO-hE6-Ivbw02WwjuRh-23" value="&lt;font style=&quot;font-size: 15px;&quot;&gt;交换&lt;/font&gt;" style="rounded=1;whiteSpace=wrap;html=1;" vertex="1" parent="1">
          <mxGeometry x="210" y="405" width="120" height="40" as="geometry" />
        </mxCell>
        <mxCell id="qZO-hE6-Ivbw02WwjuRh-24" value="BitTorrent &amp;amp; BitSwap&lt;div&gt;管理区块如何分布&lt;/div&gt;" style="rounded=1;whiteSpace=wrap;html=1;" vertex="1" parent="1">
          <mxGeometry x="354" y="405" width="286" height="40" as="geometry" />
        </mxCell>
        <mxCell id="qZO-hE6-Ivbw02WwjuRh-25" value="&lt;font style=&quot;font-size: 15px;&quot;&gt;对象&lt;/font&gt;" style="rounded=1;whiteSpace=wrap;html=1;" vertex="1" parent="1">
          <mxGeometry x="210" y="460" width="120" height="40" as="geometry" />
        </mxCell>
        <mxCell id="qZO-hE6-Ivbw02WwjuRh-26" value="Merkle-DAG&lt;div&gt;内容可寻址的不可篡改、去冗余的对象链接&lt;/div&gt;" style="rounded=1;whiteSpace=wrap;html=1;" vertex="1" parent="1">
          <mxGeometry x="354" y="460" width="286" height="40" as="geometry" />
        </mxCell>
        <mxCell id="qZO-hE6-Ivbw02WwjuRh-27" value="&lt;font style=&quot;font-size: 15px;&quot;&gt;文件&lt;/font&gt;" style="rounded=1;whiteSpace=wrap;html=1;" vertex="1" parent="1">
          <mxGeometry x="210" y="510" width="120" height="40" as="geometry" />
        </mxCell>
        <mxCell id="qZO-hE6-Ivbw02WwjuRh-28" value="类似Git&lt;div&gt;版本控制的文件系统：blob，list，tree，commit&lt;/div&gt;" style="rounded=1;whiteSpace=wrap;html=1;" vertex="1" parent="1">
          <mxGeometry x="354" y="510" width="286" height="40" as="geometry" />
        </mxCell>
        <mxCell id="qZO-hE6-Ivbw02WwjuRh-29" value="&lt;font style=&quot;font-size: 15px;&quot;&gt;命名&lt;/font&gt;" style="rounded=1;whiteSpace=wrap;html=1;" vertex="1" parent="1">
          <mxGeometry x="210" y="565" width="120" height="40" as="geometry" />
        </mxCell>
        <mxCell id="qZO-hE6-Ivbw02WwjuRh-30" value="具有SFS（Self-Certified Filesystems）&lt;div&gt;IPNS：DAG对象命名可变&lt;/div&gt;" style="rounded=1;whiteSpace=wrap;html=1;" vertex="1" parent="1">
          <mxGeometry x="354" y="565" width="286" height="40" as="geometry" />
        </mxCell>
        <mxCell id="qZO-hE6-Ivbw02WwjuRh-31" value="&lt;font style=&quot;font-size: 15px;&quot;&gt;应用&lt;/font&gt;" style="rounded=1;whiteSpace=wrap;html=1;" vertex="1" parent="1">
          <mxGeometry x="210" y="615" width="120" height="40" as="geometry" />
        </mxCell>
        <mxCell id="qZO-hE6-Ivbw02WwjuRh-32" value="在IPFS上运行的应用程序利用最近节点提供服务&lt;div&gt;提升效率、降低成本&lt;/div&gt;" style="rounded=1;whiteSpace=wrap;html=1;" vertex="1" parent="1">
          <mxGeometry x="354" y="615" width="286" height="40" as="geometry" />
        </mxCell>
      </root>
    </mxGraphModel>
  </diagram>
</mxfile>
